<svg width="16" height="16" viewBox="0 0 16 16" fill="none" xmlns="http://www.w3.org/2000/svg">
<path d="M5.42832 8.85222L7.11689 10.3361L5.63299 8.64755L8.80547 5.73092C7.53648 4.74848 6.36641 5.18512 5.94001 5.52624C4.42541 6.54962 4.9678 8.16997 5.42832 8.85222Z" fill="#FF6F61"/>
<path fill-rule="evenodd" clip-rule="evenodd" d="M6.96339 15.4018H2L3.63741 2.71195H5.42832C5.5136 1.80797 6.22655 0 8.39612 0C10.5657 0 11.1422 1.80797 11.1592 2.71195H12.8478L13.513 6.80547L10.5452 4.19585L9.47066 5.2704L10.9546 6.95897L8.80547 5.06572C8.56668 4.89516 7.87419 4.55403 7.01455 4.55403C5.94001 4.55403 4.3026 5.73092 4.3026 7.52183C4.31966 7.88001 4.47658 8.70895 4.9678 9.15924L3.63741 10.4385L6.96339 15.4018ZM10.5452 2.71195H6.09351C6.09351 2.45611 6.40053 0.562858 8.39612 0.562858C9.99259 0.562858 10.494 1.99559 10.5452 2.71195Z" fill="#FF6F61"/>
<path d="M9.70369 9.61412V11.2597H11.9879V12.3404H9.70369V16H8.54932V9.45448C8.54932 8.84864 8.74171 8.36151 9.1265 7.99309C9.38849 7.74748 9.68322 7.58783 10.0107 7.51415C10.3382 7.44047 10.7393 7.40363 11.2142 7.40363H12.5159V8.48431H11.0545C10.154 8.48431 9.70369 8.86092 9.70369 9.61412Z" fill="#02010A"/>
</svg>
